# xmcd CD database file
#
# Track frame offsets:
#	150
#	21132
#	39627
#	57032
#	79560
#	98207
#	119927
#	142220
#	160655
#	177650
#
# Disc length: 2594 seconds
#
# Revision: 3
# Processed by: cddbd v1.5.2PL0 Copyright (c) Steve Scherf et al.
# Submitted via: CDex 1.70beta2
#
DISCID=890a200a
DTITLE=中山美穂 - MIHO NAKAYAMA COLLECTION Ⅱ
DYEAR=1990
DGENRE=J-Pop
TTITLE0=You're My Only Shinin' Star
TTITLE1=人魚姫mermaid
TTITLE2=Witchesウイッチズ
TTITLE3=ROSECOLOR
TTITLE4=Virgin eyes
TTITLE5=Midnight Taxi
TTITLE6=セミスイートの魔法
TTITLE7=女神たちの冒険
TTITLE8=愛してるっていわない!
TTITLE9=I can't follow you
EXTD=YEAR: 1990
EXTT0=
EXTT1=
EXTT2=
EXTT3=
EXTT4=
EXTT5=
EXTT6=
EXTT7=
EXTT8=
EXTT9=
PLAYORDER=
